<?xml version="1.0" encoding="UTF-8" standalone="no"?>
<!-- Uploaded to: SVG Repo, www.svgrepo.com, Generator: SVG Repo Mixer Tools -->

<svg
   height="800px"
   width="800px"
   version="1.1"
   id="Layer_1"
   viewBox="0 0 512 512"
   xml:space="preserve"
   sodipodi:docname="blue-flag-pole-svgrepo-com.svg"
   inkscape:version="1.3.2 (091e20e, 2023-11-25, custom)"
   xmlns:inkscape="http://www.inkscape.org/namespaces/inkscape"
   xmlns:sodipodi="http://sodipodi.sourceforge.net/DTD/sodipodi-0.dtd"
   xmlns="http://www.w3.org/2000/svg"
   xmlns:svg="http://www.w3.org/2000/svg"><defs
   id="defs4" /><sodipodi:namedview
   id="namedview4"
   pagecolor="#ffffff"
   bordercolor="#000000"
   borderopacity="0.25"
   inkscape:showpageshadow="2"
   inkscape:pageopacity="0.0"
   inkscape:pagecheckerboard="0"
   inkscape:deskcolor="#d1d1d1"
   inkscape:zoom="0.92625"
   inkscape:cx="399.46019"
   inkscape:cy="400"
   inkscape:window-width="1920"
   inkscape:window-height="1009"
   inkscape:window-x="1672"
   inkscape:window-y="-8"
   inkscape:window-maximized="1"
   inkscape:current-layer="Layer_1" />
<path
   style="fill:#0098ff;fill-opacity:1"
   d="M414.47,279.964H166.064c-9.22,0-16.696-7.475-16.696-16.696v-64.4  c0-9.22,7.475-16.696,16.696-16.696h107.508v-47.705c0-9.22,7.475-16.696,16.696-16.696H414.47  c12.222,0,20.319,12.744,15.103,23.814l-26.995,57.283l26.995,57.284C434.784,267.207,426.706,279.964,414.47,279.964z"
   id="path1" />
<path
   style="fill:#006eff;fill-opacity:1"
   d="M306.963,172.547h-33.391v9.624H166.064c-9.22,0-16.696,7.475-16.696,16.696v64.4  c0,6.8,4.07,12.638,9.903,15.242l127.392-54.294C310.102,214.226,306.963,191.762,306.963,172.547z"
   id="path2" />
<path
   style="fill:#40596B;"
   d="M97.518,512c-9.22,0-16.696-7.475-16.696-16.696V16.696C80.822,7.475,88.298,0,97.518,0  s16.696,7.475,16.696,16.696v478.609C114.214,504.525,106.738,512,97.518,512z"
   id="path3" />
<path
   style="fill:#00beff;fill-opacity:1"
   d="M290.267,215.564H80.817V53.356h209.45c9.22,0,16.696,7.475,16.696,16.696v128.817  C306.963,208.089,299.488,215.564,290.267,215.564z"
   id="path4" />
</svg>
