<?xml version="1.0" encoding="iso-8859-1"?>
<!-- Uploaded to: SVG Repo, www.svgrepo.com, Generator: SVG Repo Mixer Tools -->
<svg version="1.1" id="Layer_1" xmlns="http://www.w3.org/2000/svg" xmlns:xlink="http://www.w3.org/1999/xlink" 
	 viewBox="0 0 512 512" xml:space="preserve">
<g>
	<path style="fill:#72C6EF;" d="M477.091,267.636v7.68l-58.182,38.865l-186.182,124.16v-69.935l207.244-143.011
		C461.731,234.007,477.091,249.367,477.091,267.636z"/>
	<polygon style="fill:#72C6EF;" points="256,58.182 395.636,58.182 395.636,11.636 244.364,11.636 	"/>
</g>
<rect x="34.909" y="151.273" style="fill:#FAA85F;" width="93.091" height="128"/>
<g>
	<path style="fill:#00384E;" d="M128,290.909H34.909c-6.435,0-11.636-5.201-11.636-11.636v-128c0-6.435,5.201-11.636,11.636-11.636
		H128c6.435,0,11.636,5.201,11.636,11.636v128C139.636,285.708,134.435,290.909,128,290.909z M46.545,267.636h69.818V162.909H46.545
		V267.636z"/>
	<path style="fill:#00384E;" d="M444.451,214.668c-0.023-0.012-0.035-0.023-0.047-0.035c-0.035-0.012-0.081-0.023-0.116-0.035
		c-0.012,0-0.023-0.012-0.035-0.012s-0.035-0.012-0.035-0.012l-2.304-0.838l-41.996-15.104l-29.056-11.625
		c-1.804-0.733-3.654-0.826-5.469-0.628c-2.804-0.407-5.76,0.128-8.262,1.862c-18.502,12.753-49.745,12.753-68.247,0
		c-2.583-1.78-5.62-2.327-8.483-1.862c-1.804-0.186-3.654-0.081-5.434,0.64l-29.091,11.636c-0.116,0.047-0.186,0.14-0.303,0.198
		c-0.116,0.047-0.244,0.035-0.361,0.093c-0.233,0.116-23.459,11.089-33.943,14.836c-25.635,9.425-29.615,27.729-33.117,43.881
		c-0.512,2.339-1.036,4.748-1.641,7.191c-3.002,12.183-8.448,31.942-12.719,47.255c-2.257,8.076-9.681,13.708-18.071,13.708H81.455
		c-22.458,0-40.727,18.269-40.727,40.727s18.269,40.727,40.727,40.727h93.091c17.897,0,34.176-6.819,46.545-17.92v48.989v62.022
		c0,6.435,5.201,11.636,11.636,11.636h186.182c6.435,0,11.636-5.201,11.636-11.636v-3.759l50.863-20.34
		c4.422-1.78,7.319-6.051,7.319-10.81V275.316v-7.68C488.727,245.492,472.18,225.711,444.451,214.668z M465.455,267.636v1.466
		L244.364,416.593v-42.065l196.876-135.866C456.32,246.016,465.455,256.791,465.455,267.636z M174.545,384H81.455
		C71.831,384,64,376.169,64,366.545s7.831-17.455,17.455-17.455h64.268c18.781,0,35.421-12.637,40.483-30.732
		c4.34-15.523,9.856-35.584,12.893-47.93c0.663-2.665,1.222-5.271,1.78-7.843c3.398-15.628,5.295-22.156,18.304-26.938
		c11.148-3.991,33.524-14.522,35.665-15.535l25.356-10.147c12.521,7.296,27.578,11.148,42.787,11.148
		c15.162,0,30.185-3.852,42.705-11.113l25.612,10.24c0.128,0.047,0.268,0.035,0.396,0.081l-0.023,0.058l23.017,8.285
		l-171.02,118.039c0.407-3.037,0.687-6.109,0.687-9.251v-23.273c0-6.435-5.201-11.636-11.636-11.636s-11.636,5.201-11.636,11.636
		v23.273C221.091,363.124,200.215,384,174.545,384z M244.364,488.727v-44.16l162.909-108.672v152.599c0,0.012,0,0.012,0,0.023v0.209
		H244.364z M430.545,471.54v-151.18l34.909-23.284v160.5L430.545,471.54z"/>
	<path style="fill:#00384E;" d="M407.273,11.636C407.273,5.201,402.071,0,395.636,0H244.364c-3.584,0-6.97,1.652-9.169,4.48
		c-2.199,2.816-2.991,6.505-2.118,9.972l8.029,32.093h-8.378c-6.435,0-11.636,5.201-11.636,11.636s5.201,11.636,11.636,11.636
		h12.567c-0.547,3.817-0.931,7.68-0.931,11.636c0,44.905,36.55,81.455,81.455,81.455s81.455-36.55,81.455-81.455
		c0-5.888-0.815-11.567-2.025-17.094c1.175-1.815,2.025-3.852,2.025-6.179V11.636z M384,23.273v23.273H265.088l-5.818-23.273H384z
		 M325.818,139.636c-32.081,0-58.182-26.1-58.182-58.182c0-3.98,0.407-7.878,1.175-11.636h114.013
		c0.768,3.759,1.175,7.657,1.175,11.636C384,113.536,357.9,139.636,325.818,139.636z"/>
</g>
<g>
	<path style="fill:#FFFFFF;" d="M174.545,384H81.455C71.831,384,64,376.169,64,366.545s7.831-17.455,17.455-17.455h64.268
		c18.781,0,35.421-12.637,40.483-30.732c4.34-15.523,9.856-35.584,12.893-47.93c0.663-2.665,1.222-5.271,1.78-7.843
		c3.398-15.628,5.295-22.156,18.304-26.938c11.148-3.991,33.524-14.522,35.665-15.535l25.356-10.147
		c12.521,7.296,27.578,11.148,42.787,11.148c15.162,0,30.185-3.852,42.705-11.113l25.612,10.24c0.128,0.047,0.268,0.035,0.396,0.081
		l-0.023,0.058l23.017,8.285l-171.02,118.039c0.407-3.037,0.687-6.109,0.687-9.251v-23.273c0-6.435-5.201-11.636-11.636-11.636
		s-11.636,5.201-11.636,11.636v23.273C221.091,363.124,200.215,384,174.545,384z"/>
	<polygon style="fill:#FFFFFF;" points="244.364,488.727 244.364,444.567 407.273,335.884 407.273,488.495 407.273,488.518 
		407.273,488.727 	"/>
	<polygon style="fill:#FFFFFF;" points="430.545,471.54 430.545,320.361 465.455,297.076 465.455,457.577 	"/>
	<path style="fill:#FFFFFF;" d="M325.818,139.636c-32.081,0-58.182-26.1-58.182-58.182c0-3.98,0.407-7.878,1.175-11.636h114.013
		c0.768,3.759,1.175,7.657,1.175,11.636C384,113.536,357.9,139.636,325.818,139.636z"/>
</g>
</svg>