<svg xmlns="http://www.w3.org/2000/svg" version="1.1" xmlns:xlink="http://www.w3.org/1999/xlink" width="256" height="256"><svg version="1.1" id="SvgjsSvg1097" x="0px" y="0px" viewBox="0 0 256 256" style="enable-background:new 0 0 256 256;" xml:space="preserve" sodipodi:docname="reshot-icon-map-DZ6V89A7XG.svg" inkscape:version="1.3.2 (091e20e, 2023-11-25, custom)" xmlns:inkscape="http://www.inkscape.org/namespaces/inkscape" xmlns:sodipodi="http://sodipodi.sourceforge.net/DTD/sodipodi-0.dtd" xmlns="http://www.w3.org/2000/svg" xmlns:svg="http://www.w3.org/2000/svg"><defs id="SvgjsDefs1096"></defs><sodipodi:namedview id="SvgjsSodipodi:namedview1095" pagecolor="#ffffff" bordercolor="#000000" borderopacity="0.25" inkscape:showpageshadow="2" inkscape:pageopacity="0.0" inkscape:pagecheckerboard="0" inkscape:deskcolor="#d1d1d1" inkscape:zoom="1.0233713" inkscape:cx="100.64773" inkscape:cy="131.42834" inkscape:window-width="1680" inkscape:window-height="979" inkscape:window-x="-8" inkscape:window-y="18" inkscape:window-maximized="1" inkscape:current-layer="layer1"></sodipodi:namedview>
<style type="text/css" id="SvgjsStyle1094">
	.st0{fill:#231F20;}
	.st1{fill:#FFEFE4;}
	.st2{fill:#69EBFC;}
	.st3{fill:#5FD4E3;}
	.st4{fill:#A1F1FC;}
	.st5{fill:#D476E2;}
	.st6{fill:#B665C2;}
	.st7{fill:#EA82FA;}
	.st8{fill:#FFF7F2;}
	.st9{fill:#FF8354;}
	.st10{fill:#FFA172;}
	.st11{fill:#6770E6;}
	.st12{fill:#5861C7;}
	.st13{fill:#E0734A;}
	.st14{fill:#EDD4C2;}
	.st15{fill:#CC6944;}
	.st16{fill:#858EFF;}
	.st17{fill:#C76642;}
	.st18{fill:#FFFFFF;}
	.st19{fill:#FFDEC7;}
	.st20{fill:#4E56B0;}
	.st21{fill:#94529E;}
	.st22{fill:#41B6C5;}
	.st23{fill:#9847A4;}
	.st24{fill:#C2552C;}
	.st25{fill:#CFB6A4;}
</style>
<g id="SvgjsG1093">
	<path class="st11" d="M222.959,256H33.041C14.793,256,0,241.207,0,222.959V63.041C0,44.793,14.793,30,33.041,30h189.917   C241.207,30,256,44.793,256,63.041v159.917C256,241.207,241.207,256,222.959,256z" id="SvgjsPath1092" style="fill:#007fd5;fill-opacity:1"></path>
	<path class="st9" d="M256,222.959v-9.58l-127.03-29.526L33.041,256h189.917C241.207,256,256,241.207,256,222.959z" id="SvgjsPath1091" style="fill:#ff3b3f;fill-opacity:1"></path>
	<path class="st2" d="M222.959,30H33.041C14.793,30,0,44.793,0,63.041v49.768l256,59.504V63.041C256,44.793,241.207,30,222.959,30z" id="SvgjsPath1090" style="fill:#10aeff;fill-opacity:1"></path>
	<path class="st12" d="M222.959,249H33.041C14.793,249,0,234.207,0,215.959v7C0,241.207,14.793,256,33.041,256h189.917   C241.207,256,256,241.207,256,222.959v-7C256,234.207,241.207,249,222.959,249z" id="SvgjsPath1089"></path>
	<path class="st13" d="M222.959,249H42.349l-9.307,7h189.917C241.207,256,256,241.207,256,222.959v-7   C256,234.207,241.207,249,222.959,249z" id="SvgjsPath1088" style="fill:#d52525;fill-opacity:1"></path>
	<path class="st4" d="M222.959,30H33.041C14.793,30,0,44.793,0,63.041v7C0,51.793,14.793,37,33.041,37h189.917   C241.207,37,256,51.793,256,70.041v-7C256,44.793,241.207,30,222.959,30z" id="SvgjsPath1087" style="fill:#8ae0fd;fill-opacity:1"></path>
	<path class="st1" d="M 0.972,230.922 C 4.537,245.322 17.539,256 33.041,256 h 1.037 L 135.76,178.69 111.55,146.848 Z" id="SvgjsPath1086" style="display:inline"></path>
	<path class="st14" d="M33.041,249c-13.435,0-24.988-8.023-30.153-19.535l-1.916,1.457c0.094,0.379,0.198,0.754,0.305,1.127   c0.029,0.101,0.056,0.203,0.086,0.304c0.103,0.349,0.214,0.696,0.329,1.04c0.039,0.118,0.079,0.236,0.12,0.353   c0.118,0.341,0.24,0.679,0.368,1.015c0.04,0.104,0.082,0.208,0.123,0.311c0.138,0.35,0.279,0.699,0.429,1.044   c0.016,0.036,0.032,0.071,0.048,0.107c0.509,1.16,1.084,2.284,1.718,3.37c0.041,0.07,0.08,0.142,0.122,0.212   c0.178,0.3,0.364,0.596,0.552,0.89c0.074,0.116,0.147,0.233,0.223,0.348c0.182,0.277,0.368,0.551,0.557,0.822   c0.087,0.124,0.175,0.247,0.263,0.37c0.19,0.265,0.383,0.528,0.581,0.787c0.09,0.118,0.184,0.234,0.276,0.351   c0.206,0.262,0.413,0.524,0.626,0.779c0.053,0.063,0.108,0.124,0.162,0.187c0.477,0.561,0.972,1.106,1.485,1.634   c0.066,0.068,0.13,0.139,0.197,0.207c0.211,0.213,0.428,0.42,0.644,0.627c0.138,0.132,0.274,0.265,0.414,0.395   c0.206,0.19,0.415,0.376,0.625,0.561c0.159,0.14,0.319,0.279,0.481,0.416c0.206,0.174,0.413,0.346,0.623,0.515   c0.175,0.141,0.352,0.279,0.53,0.417c0.206,0.159,0.413,0.319,0.623,0.474c0.196,0.144,0.395,0.283,0.594,0.422   c0.2,0.141,0.399,0.284,0.602,0.42c0.338,0.226,0.681,0.445,1.027,0.659c0.217,0.134,0.437,0.262,0.658,0.392   c0.256,0.15,0.512,0.301,0.773,0.444c0.193,0.106,0.389,0.207,0.584,0.309c0.247,0.13,0.494,0.258,0.745,0.382   c0.2,0.098,0.401,0.193,0.603,0.288c0.255,0.119,0.512,0.236,0.771,0.349c0.199,0.087,0.399,0.173,0.6,0.256   c0.277,0.114,0.556,0.223,0.837,0.33c0.187,0.071,0.373,0.145,0.561,0.213c0.346,0.125,0.695,0.241,1.046,0.354   c0.128,0.041,0.253,0.087,0.381,0.126c0.476,0.147,0.957,0.283,1.442,0.409c0.149,0.039,0.301,0.071,0.45,0.108   c0.346,0.085,0.692,0.167,1.042,0.24c0.189,0.04,0.379,0.075,0.569,0.111c0.318,0.061,0.637,0.119,0.959,0.171   c0.199,0.032,0.398,0.062,0.599,0.091c0.322,0.046,0.646,0.087,0.971,0.123c0.196,0.022,0.392,0.045,0.589,0.064   c0.352,0.033,0.706,0.058,1.061,0.081c0.17,0.011,0.34,0.025,0.511,0.033c0.525,0.025,1.053,0.04,1.585,0.04h1.037l9.207-7H33.041z   " id="SvgjsPath1085" style="fill:#e7c9b4;fill-opacity:1"></path>
	<polygon class="st1" points="0,112.809 0,153.875 256,213.379 256,172.313 " id="SvgjsPolygon1084" style="display:none;fill:#0033ff;fill-opacity:1" inkscape:label="polygon8"></polygon>
	<path id="SvgjsPath1083" class="st5" d="M190.895,59.492c2.444,48.394-46.86,91.681-59.815,102.189   c-1.792,1.454-4.354,1.452-6.139-0.01c-12.615-10.33-59.922-52.173-59.922-98.688C65.018,28.202,93.21,0.006,127.989,0   C161.583-0.005,189.201,25.941,190.895,59.492z" style="fill:#cfcfcf;fill-opacity:1"></path>
	<path id="SvgjsPath1082" class="st7" d="M127.989,10.845c32.966-0.005,60.175,24.983,62.781,57.623   c0.228-2.967,0.277-5.961,0.125-8.975C189.201,25.941,161.583-0.006,127.989,0C93.21,0.006,65.018,28.202,65.018,62.982   c0,1.847,0.083,3.685,0.227,5.515C67.95,36.212,95.005,10.85,127.989,10.845z" style="fill:#e4e4e4;fill-opacity:1"></path>
	
<g id="SvgjsG1081" transform="matrix(0.85252138,0,0,0.85248464,63.192905,-186.59133)" inkscape:label="HZ_logo" style="display:inline"><path style="fill:#ff3b3f;fill-opacity:1;fill-rule:evenodd;stroke:none" d="m 92.582031,268.60937 h 7.621099 v 8.30079 h -7.621099 z m 0,0" id="SvgjsPath1080" inkscape:connector-curvature="0"></path><path style="fill:#007fd5;fill-opacity:1;fill-rule:evenodd;stroke:none" d="m 104.07031,309.17187 c -2.72656,0 -5.57031,-0.10937 -7.957029,-0.10937 h -6.03125 l 6.03125,-3.41797 7.957029,-4.53906 13.9961,-7.83985 c -0.23047,5.57032 -1.48047,11.02735 -3.75391,15.90625 z m 0,13.86329 c -2.39062,2.16015 -5.117185,3.97265 -7.957029,5.5664 -2.28125,1.14063 -4.667969,2.16016 -7.171875,2.95313 -3.867187,1.24609 -7.960937,1.8164 -12.28125,1.8164 -1.140625,0 -2.277344,0 -3.296875,-0.11328 l 0.675781,-10.90625 14.902344,0.11719 7.171875,0.10547 h 8.414059 z M 66.761719,281.90234 H 54.246094 l 0.230468,-0.79297 7.621094,-27.71875 c 3.296875,-1.25 6.597656,-2.05078 10.238282,-2.38671 z m -8.53125,47.14844 c -1.253907,-0.67969 -2.5,-1.35937 -3.753907,-2.15234 -1.9375,-1.25 -3.871093,-2.61719 -5.574218,-4.20703 -1.59375,-1.47266 -3.074219,-2.95313 -4.324219,-4.65625 l 4.324219,-16.70313 1.703125,-6.47266 H 64.371094 Z M 36.5,301.78516 c -0.796875,-3.0625 -1.25,-6.35547 -1.25,-9.76172 0,-9.66407 3.414062,-18.52735 8.984375,-25.57032 1.480469,-1.82031 2.964844,-3.40625 4.667969,-4.99218 1.359375,-1.25782 2.84375,-2.39453 4.320312,-3.41407 l -4.320312,11.35547 -4.667969,12.05078 z m 39.816406,-7.04297 h 19.796875 l 5.910159,0.11718 -5.910159,3.40625 -7.171875,4.19922 -14.332031,8.30078 z m 3.644532,-43.85157 c 3.070312,0.22657 6.140624,0.79297 8.980468,1.70704 2.503906,0.79296 4.890625,1.8125 7.171875,2.94921 2.839844,1.59375 5.566409,3.41407 7.957029,5.57032 6.14453,5.44922 10.69532,12.72265 12.74219,20.90234 -2.04687,-0.11719 -7.05078,-0.11719 -12.74219,-0.23047 H 88.941406 c -6.597656,0 -11.714844,0.11328 -11.714844,0.11328 z m 24.109372,5.33594 c -2.5039,-1.92969 -5.117185,-3.51562 -7.957029,-4.88672 -2.28125,-1.1289 -4.667969,-2.04297 -7.171875,-2.72265 -3.867187,-1.02735 -8.078125,-1.70703 -12.28125,-1.70703 -8.078125,0 -15.589844,2.16015 -22.183594,5.91406 -1.9375,1.1289 -3.871093,2.3789 -5.574218,3.74219 -1.59375,1.2539 -3.1875,2.61718 -4.667969,4.09375 -7.847656,8.17968 -12.738281,19.19921 -12.738281,31.36328 0,12.26953 4.890625,23.28515 12.738281,31.46875 1.480469,1.47265 3.074219,2.84375 4.667969,4.08593 1.703125,1.35938 3.636718,2.6211 5.574218,3.7461 6.59375,3.7539 14.105469,5.91015 22.183594,5.91015 4.203125,0 8.414063,-0.67968 12.28125,-1.69921 2.503906,-0.67969 4.890625,-1.58985 7.171875,-2.73438 2.839844,-1.35937 5.453129,-2.94531 7.957029,-4.87891 10.80469,-8.30078 17.7461,-21.25 17.7461,-35.89843 0,-14.55078 -6.94141,-27.50391 -17.7461,-35.79688" id="SvgjsPath1079" inkscape:connector-curvature="0"></path></g></g><g inkscape:groupmode="layer" id="SvgjsG1078" inkscape:label="pruga"><path style="fill:#0e232e;fill-opacity:1;stroke:#0e232e;stroke-width:4;stroke-dasharray:none;stroke-opacity:1" d="M 14.364372,234.8529 114.55331,158.15654" id="SvgjsPath1077" sodipodi:nodetypes="cc"></path><path style="fill:#0e232e;fill-opacity:1;stroke:#0e232e;stroke-width:4;stroke-dasharray:none;stroke-opacity:1" d="m 30.842845,243.86219 c 8.982456,-5.52766 95.352225,-74.62348 95.352225,-74.62348" id="SvgjsPath1076" sodipodi:nodetypes="cc"></path><path style="fill:#0e232e;fill-opacity:1;stroke:#0e232e;stroke-width:7;stroke-dasharray:none;stroke-opacity:1" d="m 99.32211,159.46523 c 1.41749,2.36979 19.22152,25.20882 19.22152,25.20882" id="SvgjsPath1075" sodipodi:nodetypes="cc" inkscape:label="path9-6-9"></path><path style="fill:#0e232e;fill-opacity:1;stroke:#0e232e;stroke-width:7;stroke-dasharray:none;stroke-opacity:1" d="m 82.098141,173.01347 c 1.41749,2.36979 19.221519,25.20882 19.221519,25.20882" id="SvgjsPath1074" sodipodi:nodetypes="cc" inkscape:label="path9-6-9"></path><path style="fill:#0e232e;fill-opacity:1;stroke:#0e232e;stroke-width:7;stroke-dasharray:none;stroke-opacity:1" d="m 66.03336,186.08905 c 1.41749,2.36979 19.22152,25.20882 19.22152,25.20882" id="SvgjsPath1073" sodipodi:nodetypes="cc" inkscape:label="path9-6-9"></path><path style="fill:#0e232e;fill-opacity:1;stroke:#0e232e;stroke-width:7;stroke-dasharray:none;stroke-opacity:1" d="m 49.111636,199.25234 c 1.41749,2.36979 19.22152,25.20882 19.22152,25.20882" id="SvgjsPath1072" sodipodi:nodetypes="cc" inkscape:label="path9-6-9"></path><path style="fill:#0e232e;fill-opacity:1;stroke:#0e232e;stroke-width:7;stroke-dasharray:none;stroke-opacity:1" d="m 31.274929,213.25234 c 1.41749,2.36979 19.22152,25.20882 19.22152,25.20882" id="SvgjsPath1071" sodipodi:nodetypes="cc" inkscape:label="path9-6-9"></path></g>
</svg><style>@media (prefers-color-scheme: light) { :root { filter: none; } }
@media (prefers-color-scheme: dark) { :root { filter: none; } }
</style></svg>