<?xml version="1.0" encoding="utf-8"?><!-- Uploaded to: SVG Repo, www.svgrepo.com, Generator: SVG Repo Mixer Tools -->
<svg fill="#000000" width="800px" height="800px" viewBox="0 0 24 24" id="map-pin" data-name="Line Color" xmlns="http://www.w3.org/2000/svg" class="icon line-color"><path id="secondary" d="M15.93,18a1.47,1.47,0,0,1,.07.46c0,1.4-1.79,2.54-4,2.54s-4-1.14-4-2.54A1.47,1.47,0,0,1,8.07,18" style="fill: none; stroke: rgb(44, 169, 188); stroke-linecap: round; stroke-linejoin: round; stroke-width: 2;"></path><path id="primary" d="M9,6a3,3,0,0,0,3,3h0a3,3,0,0,0,3-3h0a3,3,0,0,0-3-3h0A3,3,0,0,0,9,6Zm3,3v8" style="fill: none; stroke: rgb(0, 0, 0); stroke-linecap: round; stroke-linejoin: round; stroke-width: 2;"></path></svg>